<?xml version="1.0" standalone="no"?>
<svg width="160" height="120" viewBox="0 0 160 120" xmlns="http://www.w3.org/2000/svg" xmlns:xlink="http://www.w3.org/1999/xlink" version="1.1"><path d="M 9.75 -0.044525351069881314 C 7.946307247518828 -0.08021870797051456 7.742069262301488 0.16772976287327834 8.72036073401513 1.2054746489301187 C 9.683500382443947 2.2271468944877792 9.630806724245843 2.974242923782924 8.47036073401513 4.75 C 7.661662330306809 5.987500000000001 6.325 7 5.5 7 C 4.675 7 4 7.45 4 8 C 4 8.55 3.0999999999999996 8.775 2 8.5 L 0 8 L 0 45.5 L 0 83 L 3.25 83.0136546832924 C 5.0375000000000005 83.02116475910323 7.625 83.28520075884278 9 83.60040134938026 C 10.864066578899763 84.02771399408603 11.118439947339859 83.92317033289011 10 83.18941626144822 C 8.91827233054751 82.47974733059507 10.730785762920053 82.01702770318232 16.5 81.53002024017519 C 20.9 81.15859481737516 26.6375 81.112393499463 29.25 81.42735064481484 C 32.13176623679011 81.77476992424478 34 81.60668762879791 34 81 C 34 80.35556026350656 37.46671256918901 80.23997869619751 43.75 80.67493114621647 C 51.94064568293268 81.24191800560465 53.34006622389053 81.12917716892962 52.5 79.9700091502657 C 51.68916283536349 78.85117294085603 52.06748850609048 78.70867790107351 54.5 79.2167161500382 C 56.15 79.56132422810505 58.85 80.13993671472338 60.5 80.50252167585671 C 62.61315589687698 80.9668844326675 63.05657794843849 80.87529272652728 62 80.19268692874273 C 61.175 79.65969285669672 60.8375 78.72329526825624 61.25 78.111803398875 C 61.6625 77.50031152949374 62.675 77 63.5 77 C 64.325 77 64.775 76.55 64.5 76 C 64.225 75.45 64.45 74.775 65 74.5 C 65.55 74.225 66 75.125 66 76.5 C 66 78.22795663669997 65.61397831834998 78.77150027322419 64.75 78.26008130618756 C 63.92088849166673 77.7693012227709 63.75253309500003 77.9376566194376 64.25 78.76008130618756 C 64.6625 79.4420365877844 65.45 79.775 66 79.5 C 66.55 79.225 69.8125 78.68321804422564 73.25 78.2960400982792 C 76.6875 77.90886215233276 82.83577226368081 77.57136215233275 86.91282725262403 77.5460400982792 C 92.64226904024689 77.5104552864392 94.43915318773024 77.84063632018511 94.82544860715348 79 L 95.32524270905891 80.5 L 93.63946943366177 79 C 92.71229413219335 78.175 91.62661452265509 77.83308269678945 91.22684807913231 78.24018377064323 C 90.82708163560955 78.647284844497 90.8375 79.659784844497 91.25 80.49018377064323 C 91.6625 81.32058269678944 92.5625 81.91177784958718 93.25 81.8039507768604 C 93.9375 81.69612370413361 95.625 81.95572665978075 97 82.38084623385403 C 98.61503454065249 82.88017917642554 99.853986183739 82.72065347131833 100.5 81.93019106019102 C 101.2448422853425 81.0188021487447 101.12275819503776 80.93539225100628 100.02153478695087 81.6032956031974 C 98.83141807620594 82.32511366006754 98.70367631960684 82.10993535761384 99.3665574179812 80.5 C 100.07704519077082 78.77444259706391 99.90256353617687 78.60291597389896 98.09502263103033 79.25 C 96.86500754367678 79.690334773406 96 79.58711303120799 96 79 C 96 78.45 97.8 78 100 78 C 102.2 78 104.18265844966632 77.6625 104.40590766592517 77.25 C 104.62915688218402 76.8375 106.31665688218402 76.56480880013073 108.15590766592517 76.64401955584606 C 109.99515844966632 76.7232303115614 111.725 76.89958769559725 112 77.0359248537035 C 112.275 77.17226201180976 110.7 77.60609582764319 108.5 78 L 104.5 78.71618940428513 L 108 78.8516278432763 C 109.925 78.92611898472144 116 79.66758621698592 121.5 80.49933280386404 L 131.5 82.0115993254606 L 143 80.31385762203486 C 152.70273189423585 78.88144609386067 154.03114745067023 78.48058507846565 151.5 77.74890826236063 C 149.85 77.27194405142397 143.2125 76.90831796973691 136.75 76.94085030305607 C 129.54390020203738 76.97712593022179 125 76.61328508918831 125 76 C 125 75.45 126.6875 74.75229523767554 128.75 74.44954497261232 C 131.27197990960943 74.07934856722159 132.74058951281236 74.3249525852997 133.23468722548296 75.19954497261232 C 133.76427048904642 76.13694961724701 133.9736493459314 76.01144933393508 133.98468722548296 74.75 C 133.99787831918144 73.24247346085902 134.72742038257707 73.07019168179002 139.25 73.50659335127796 C 142.1375 73.78521969448083 145.85 74.02683714330615 147.5 74.04352101533422 C 149.15 74.0602048873623 150.725 74.45212794018134 151 74.91446113270987 C 151.275 75.37679432523841 153.3 75.96841737448476 155.5 76.229179019924 C 157.7 76.48994066536324 158.7125 76.54505060446911 157.75 76.3516455512704 C 156.7875 76.15824049807168 155.775 75.325 155.5 74.5 C 155.225 73.675 154.2125 72.93614261596416 153.25 72.85809470214257 C 152.2875 72.78004678832097 153.3 72.44254678832098 155.5 72.10809470214257 C 158.69104468894537 71.6229803597306 159.5505597069409 71.04496263753177 159.75 69.25 L 160 67 L 154.25 67.09077728850504 C 151.0875 67.1407047971828 147.6 67.43228873262778 146.5 67.73874158949388 L 144.5 68.29592860197768 L 146.5 69.07767903837846 C 147.9792680482431 69.65588825951237 147.45853609648623 69.85843023211189 144.5 69.85559163589113 C 142.3 69.85348082450267 138.475 69.4914341240771 136 69.05104341272322 L 131.5 68.25033302844342 L 135 68.0254864888711 L 138.5 67.80063994929877 L 136 67 C 134.625 66.55964802788567 133.95 66.09825403929345 134.5 65.97468002535061 C 135.05 65.85110601140778 135.95 65.68685925146733 136.5 65.60968722548293 C 137.05 65.53251519949855 137.95 65.14885359985367 138.5 64.75710589293874 C 139.05 64.3653581860238 139.84999999999985 64.37224893455648 140.27777777777746 64.7724186674558 C 140.70555555555507 65.17258840035511 141.04305555555507 66.2875 141.02777777777746 67.25 C 141.0116471029436 68.26623251454436 141.73376748545564 68.99357941939844 142.75 68.98468722548293 C 144.22404220986914 68.97178912491816 144.2634647513164 68.83381022985273 143 68.10968722548293 C 141.8621238700394 67.45754217674354 141.8017698916995 67.09911505415025 142.75 66.625 C 143.43817533680755 66.28091233159623 143.66290520208452 65.44785435634782 143.25 64.77153478695044 C 142.6984819333075 63.86817377455034 143.0292851554867 63.76518710392479 144.5 64.38238096482651 C 145.6 64.84400222983561 149.5323248184676 65.50931157570791 153.23849959659464 65.86084617787607 L 159.97699919318927 66.5 L 159.98849959659464 33.25 L 160 0 L 144.25 0.0007338822116051968 L 128.5 0.0014677644232103937 L 128.5 3.250733882211605 L 128.5 6.5 L 125.25 6.75 C 122.34048234973012 6.97380905002076 121.8690452501038 6.626905622030695 120.75 3.4387089980982943 L 119.5 -0.122582003803412 L 89 0.35411503960059687 C 72.225 0.6162984134728017 57.73500000000003 0.9813793643285693 56.800000000000054 1.1654060415023029 C 55.86500000000009 1.3494327186760362 55.41500000000009 1.8028737605996545 55.800000000000054 2.173052801332566 C 56.185000000000024 2.5432318420654774 57.70662603230405 2.993231842065477 59.18139118289789 3.173052801332566 C 61.488098832327395 3.454314114092852 61.69770096117276 3.740371891286618 60.68139118289789 5.220201216066532 C 59.82637535996044 6.465173482378307 58.11868208987367 6.935505706437151 54.5 6.922677599710287 C 51.75 6.91292894187776 47.7 6.748044605647741 45.5 6.556267963643579 C 43.3 6.364491321639417 39.925 5.8735972467706965 38 5.465392241713087 C 35.7061113878316 4.978962728709558 33.3825208730092 5.201648252788095 31.257200882167695 6.111600661713263 C 29.473661367359927 6.875220297770968 27.786161367359927 8.0625 27.507200882167695 8.75 C 27.211777462780795 9.478073012521953 28.1482393724517 10.369008802425649 29.75 10.883765381171179 C 31.262500000000003 11.369836340815327 34.26582329455785 12.157336340815327 36.4240517656841 12.633765381171179 C 38.582280236810355 13.11019442152703 40.49478023681036 14.0625 40.6740517656841 14.75 C 40.853323294557846 15.4375 40.4375 16.243320316538824 39.75 16.54071181453072 C 39.0625 16.838103312522616 37.15 16.555417478261013 35.5 15.91252107172716 C 33.85 15.269624665193305 30.925 14.661768180262245 29 14.56172888299147 C 27.075 14.461689585720697 24.9375 14.069375419982299 24.25 13.689919625795032 C 23.5625 13.310463831607764 23 12.1 23 11 C 23 9.675707825338197 23.422317390836373 9.247663076691376 24.25 9.733047827490882 C 24.95833063211464 10.148440012304388 24.778312057862195 9.390102897264885 23.83457459262643 7.983047827490882 C 22.918590618570967 6.617371522370897 22.386503520454394 4.825 22.652158819034042 4 C 22.994521529767155 2.9367829745351925 22.16912558169432 2.3259807607760594 19.81758422640761 1.9023831649718321 C 17.992912901883425 1.57369390570634 15.600000000000001 0.9083845598342999 14.5 0.4239179519228541 C 13.019194673934962 -0.22826453289162862 12.69469800272561 -0.13802412823325216 13.25 0.7715347869510218 C 13.6625 1.4471906541279598 13.55 2 13 2 C 12.45 2 12 1.55 12 1 C 12 0.44999999999999996 10.9875 -0.02003640798144657 9.75 -0.044525351069881314 Z M 117.5 1 C 118.325 1 119 1.225 119 1.5 C 119 1.775 118.55 2.225 118 2.5 C 117.45 2.775 116.775 2.55 116.5 2 C 116.225 1.45 116.675 1 117.5 1 Z M 1.5 4.5 C 0.6111111111111112 4.203703703703704 0 4.611111111111111 0 5.5 C 0 6.325 0.6749999999999998 7 1.5 7 C 2.325 7 3 6.55 3 6 C 3 5.45 2.325 4.775 1.5 4.5 Z M 119.75 17.076851634897885 C 120.4375 17.034583235704048 120.99104534857189 17.3375 120.9801007746042 17.75 C 120.9691562006365 18.1625 122.3191562006365 19.9625 123.9801007746042 21.75 C 125.96576074145234 23.88695703419065 126.82876262064471 25.68494951742114 126.5 27 C 126.1750911274894 28.299635490042405 124.68681654382951 29.333262439766436 122.25 29.951682830949316 C 120.1875 30.47510838797144 118.1625 30.70010838797144 117.75 30.451682830949316 C 117.3375 30.203257273927193 116.92870031231647 30.7875 116.84155624959214 31.75 L 116.6831124991843 33.5 L 116.84155624959214 35.25 C 116.96510562041317 36.6145940491829 115.90985442144373 37.165173978921615 112.05001217955032 37.75 C 109.327518878303 38.1625 107.190018878303 38.612328121051995 107.30001217955032 38.74961804678222 C 107.41000548079765 38.88690797251244 108.85 39.193403012590196 110.5 39.43071813584391 C 112.15 39.668033259097626 113.725 39.938061149453404 114 40.03078011441231 C 114.275 40.12349907937122 113.375 40.591153746919815 112 41.07001270896474 C 109.83226002773196 41.82495213667644 109.99764693213714 41.911382269801095 113.24440867544413 41.720332683614124 C 115.30383344693841 41.59914970762635 116.99133344693841 41.8375 116.99440867544413 42.25 C 116.99748390394986 42.6625 117.45 43 118 43 C 118.55 43 118.775 42.55 118.5 42 C 118.225 41.45 118.5625 40.601962703671006 119.25 40.11547267482446 C 119.9375 39.62898264597791 121.9625 38.953982645977916 123.75 38.61547267482446 L 127 38 L 127.8384593000689 41.25 L 128.67691860013784 44.5 L 132.5884593000689 44.31433374625701 C 135.39526828090197 44.18110498848066 135.9351424137719 44.35229292056217 134.5 44.92046150750259 C 133.4 45.355948215746295 128.9 46.28633626372311 124.5 46.987990503006614 C 118.37554670251944 47.96463791652277 115.67944831764774 47.994485584767794 113 47.11530343295896 C 111.075 46.483671305149244 107.475 45.9674423228241 105 45.96812791668086 C 101.84402762777623 45.969002145072984 100.94800920925874 45.694982483578414 102 45.050670231108 C 102.825 44.54538291018616 103.8375 44.32727365871884 104.25 44.56598300562506 C 104.6625 44.804692352531276 105.225 44.325 105.5 43.5 C 105.8665502020355 42.40034939389349 105.39947590915976 42.102580646336854 103.75 42.384341707149474 C 102.5125 42.595729646081686 100.94282102759867 43.60822964608168 100.26182450577483 44.634341707149474 C 99.58082798395098 45.660453768217266 98.68082798395098 46.13746994862337 98.26182450577483 45.69437766360749 C 97.84282102759867 45.25128537859161 98.175 44.47050099430168 99 43.959301254074305 C 100.04754391474053 43.31020528184144 99.29345043930806 43.108374792560404 96.5 43.29018497122459 C 94.3 43.43337075588462 91.825 43.92428385868243 91 44.381102977441955 C 90.09940844048936 44.87977866541519 89.10039437300709 44.74610777273339 88.5 44.04659594437614 C 87.77754768663867 43.20487596607393 87.98570845161767 43.036726032444754 89.25 43.440754347691964 C 90.2125 43.74833945646138 91.225 43.55 91.5 43 C 91.775 42.45 91.1 41.55 90 41 C 88.9 40.45 86.5375 39.82015017180172 84.75 39.60033371511494 C 82.9625 39.38051725842816 81.6125 38.70551725842816 81.75 38.10033371511494 C 81.8875 37.495150171801725 81.6625 36.98999386948503 81.25 36.97776415441119 C 80.8375 36.96553443933734 79.43646462519618 36.17803443933734 78.13658805599152 35.22776415441119 C 76.12284804234339 33.75562645928568 75.93790782738913 33.1671076130823 76.88658805599152 31.25 L 78 29 L 73.09449226577811 29.25 C 70.39646301195607 29.3875 67.80896301195608 29.899107142857105 67.34449226577811 30.386904761904677 C 66.87706775572371 30.877804490176594 67.05812789975093 31.43593238992752 67.75 31.636904761904677 C 68.4375 31.836607142857105 69 32.45 69 33 C 69 33.55 68.1 34.225 67 34.5 C 65.9 34.775 65.225 35.45 65.5 36 C 65.80067576176812 36.60135152353623 65.30236516618841 36.709598452661176 64.25 36.27153478695104 C 63.18652497071871 35.82884646479238 62.75805493427634 35.926921460609336 63.157800013466115 36.52153478695104 C 63.519590020872485 37.05969065412797 61.04459002087248 39.158748832063864 57.657800013466115 41.18610851569747 C 54.271010006059754 43.213468199331075 50.15 45.13148335460359 48.5 45.44836441630304 C 46.49216632091117 45.833967124148856 47.48433264182234 45.04857204774914 51.5 43.07357585561563 L 57.5 40.12263991002011 L 50.5 39.49690543854816 C 45.65161656821354 39.06350534652212 39.96520135222062 37.47360269857411 32 34.324367403633964 L 20.5 29.777563840191718 L 10.5 30.251687011828643 C 5 30.512454756228955 1.4 30.36913126036049 2.5 29.933190354343168 C 3.7915923720136444 29.421319491742537 3.968694279010233 29.11841393101856 3 29.078017290820444 C 1.9658426947095196 29.034890701270687 2.1987640420642798 28.547220089139312 3.75 27.507732028210064 C 5.3101848494589605 26.462247287117897 6.383230639189467 26.310365061285292 7.25 27.012331183715226 C 8.12571614109082 27.721542989882426 8.949140630691016 27.54859767133761 10 26.43474376434036 C 11.13458215412201 25.232148248625286 12.474447589007976 25.012963524966512 15.5 25.535014620849275 C 17.7 25.91461882362873 20.175 26.575324283056286 21 27.003248975132735 C 21.825 27.431173667209187 23.7375 27.380502749108324 25.25 26.890646934908595 C 27.49204489906411 26.164512237716266 27.907644527102565 26.277066418692304 27.5 27.5 C 27.11111111111111 28.666666666666668 27.88888888888889 29 31 29 C 34.166666666666664 29 35.104166666666664 29.416666666666668 35.5 31 C 35.775 32.1 36.3375 33.057430434717816 36.75 33.12762318826181 C 37.1625 33.1978159418058 38.51006211143857 33.310315941805804 39.74458246986349 33.37762318826181 C 40.979102828288404 33.44493043471781 41.991759966765244 33.275 41.994931666478685 33 C 41.998103366192126 32.725 43.57554125475355 32.3875 45.5003491966152 32.25 C 47.42515713847684 32.1125 49 32.45 49 33 C 49 33.55 49.675 34 50.5 34 C 51.325 34 51.823634679084236 33.6625 51.60807706463164 33.25 C 51.39251945017904 32.8375 52.18001945017904 32.5 53.35807706463164 32.5 C 54.536134679084235 32.5 55.83060925146732 32.95 56.234687225482936 33.5 C 56.68968384423582 34.11930656063034 56.97520392376307 34.02413320078793 56.984687225482936 33.25 C 56.993109251467324 32.5625 57.7875 32.15938324532539 58.75 32.354184989611966 C 59.7125 32.548986733898545 61.49474387814588 32.211486733898546 62.71054195143529 31.604184989611966 C 63.926340024724695 30.996883245325385 64.7138400247247 30.1625 64.46054195143529 29.75 C 64.20724387814587 29.3375 64.675 29.225 65.5 29.5 C 66.325 29.775 66.98749999999998 29.4375 66.97222222222217 28.75 C 66.95694444444436 28.0625 67.29444444444437 27.83392049198141 67.72222222222217 28.242045537736463 C 68.14999999999998 28.650170583491516 69.14888129231714 28.425170583491518 69.94195842737143 27.742045537736463 C 71.12555302697956 26.722544307307736 71.21514084825755 26.759824718937057 70.44195842737143 27.95011183010469 C 69.73694466835649 29.035455686719523 69.87731707919056 29.255557316247344 71 28.825111830104667 C 71.825 28.508800323547078 72.34675067183795 27.631249999999966 72.15944593741767 26.87499999999998 C 71.91711080711968 25.896562680435878 72.42182694585627 26.00471613873658 73.90944593741767 27.25 C 75.48789645095088 28.571318806398644 76.1531004262862 28.6937991474276 76.625 27.75 C 77.0986604771963 26.802679045607377 77.4514405722308 26.863214854728852 78.08190666464279 28 C 78.74885771221086 29.202570689563697 79.46764521243193 29.2873289877068 81.70690666464279 28.427454332016417 C 83.94985383339018 27.56616436404319 85.090899873963 27.7033062864025 87.5 29.123724182809617 C 89.15 30.096572718136848 90.8375 30.69171826872946 91.25 30.4462698507932 C 91.6625 30.20082143285694 92.225 30.675 92.5 31.5 C 92.775 32.325 93.675 33 94.5 33 C 95.325 33 96 33.45 96 34 C 96 34.55 95.325 35 94.5 35 C 93.675 35 93.00089430327198 35.3375 93.00198734060439 35.75 C 93.0030803779368 36.1625 94.3530803779368 36.6125 96.00198734060439 36.75 C 97.8845293221592 36.90698249102243 98.98343345102852 36.53491245511215 98.95547464893012 35.75 C 98.9238580797691 34.86239977896518 99.37164659643616 34.93487973475821 100.5 36 C 101.37397788617687 36.825 102.07651429415832 37.05 102.06119201773654 36.5 C 102.04586974131477 35.95 101.62409852220665 35.05 101.12392264194071 34.5 C 100.62374676167478 33.95 100.50374676167478 31.967713860658723 100.85725597527406 30.094919690352715 C 101.26353850825306 27.942547050575435 102.33835995118729 26.287025300194472 103.77881015726591 25.594919690352715 C 105.03215574376216 24.99271386065872 106.04465574376216 24.1625 106.02881015726591 23.75 C 106.01296457076965 23.3375 106.45 23.225 107 23.5 C 107.55 23.775 108.67682007507699 22.9875 109.50404461128221 21.75 C 110.33126914748742 20.5125 112.69376914748742 18.972083235704048 114.75404461128221 18.326851634897885 C 116.81432007507699 17.681620034091726 119.0625 17.119120034091726 119.75 17.076851634897885 Z M 147.6155675791876 27.221023652615315 C 151.64439592514412 27.440734916086363 152.60036541901528 27.809097180410525 152.1155675791876 28.95500177648431 C 151.63938690101983 30.080538201869157 152.00948187964758 30.250365495085017 153.75 29.70500177648431 C 154.99495839524627 29.314913829685345 156.22334257883415 29.446685157668327 156.5 30 C 156.775 30.55 155.5375 31.230514705882353 153.75 31.512254901960784 C 151.9625 31.793995098039215 149.0375 32.01899509803921 147.25 32.01225490196079 C 145.4625 32.005514705882355 144 31.55 144 31 C 144 30.45 143.325 30 142.5 30 C 141.675 30 140.9875 29.6625 140.97222222222223 29.25 C 140.95694444444445 28.8375 141.29444444444445 28.149460643676893 141.72222222222223 27.721023652615315 C 142.15 27.292586661553734 144.80200541063442 27.067586661553737 147.6155675791876 27.221023652615315 Z M 11.5 28.194948718896274 C 9.597969685692448 28.218441317940552 9.231979790461633 28.3955366291836 10.5 28.6788290487927 C 11.6 28.924583540105942 12.95 28.907909248181568 13.5 28.641775066738532 C 14.05 28.375640885295496 13.15 28.17456902876648 11.5 28.194948718896274 Z M 74.61600135047522 37.25 C 74.82720060771385 38.2125 75.45 38.775 76 38.5 C 76.60859335371912 38.19570332314044 76.73931443672323 38.88066495413197 76.33397767832051 40.25 L 75.66795535664103 42.5 L 74.90426294093089 40.5 C 74.48423211229031 39.4 74.16114276475993 37.825 74.1862866130856 37 C 74.21566228590612 36.03614873256307 74.36925629378287 36.12550685465692 74.61600135047522 37.25 Z M 142.75 37.13530727069214 C 142.8875 37.06088827181146 144.35 37.9 146 39 C 147.65 40.1 149.45 40.775 150 40.5 L 151 40 L 151 40.5 C 151 40.775 149.65 41.675 148 42.5 C 146.35 43.325 143.0913820740856 43.8875 140.75862683130134 43.75 C 137.90915542305072 43.58204310874603 136.4327337420817 43.00774134752385 136.25970637492432 42 C 136.1145237972819 41.15443152817968 137.41962307338 39.79552944641229 139.251079543623 38.88530727069214 C 141.03798579463034 37.997226269572806 142.6125 37.20972626957281 142.75 37.13530727069214 Z M 108 40.5 C 107.45 40.225 106.6625 40.5579634122156 106.25 41.23991869381244 C 105.75253309500003 42.0623433805624 105.92088849166673 42.230698777229094 106.75 41.73991869381244 C 107.4467796612936 41.32747045632489 108.18634790356425 41.55322033870639 108.42105263157895 42.25 L 108.84210526315789 43.5 L 108.92105263157895 42.25 C 108.96447368421053 41.5625 108.55 40.775 108 40.5 Z M 23.75 47.586111848452575 C 24.4375 47.81375033180366 25 48.225 25 48.5 C 25 48.775 23.7625 48.993109251467324 22.25 48.984687225482936 C 20.17396943671018 48.973127302607956 19.867619692751006 48.74915178162086 21 48.07079907393551 C 21.825 47.576582616568814 23.0625 47.35847336510149 23.75 47.586111848452575 Z M 44.5 47.23370030600232 C 46.7 47.224552308659675 51.2 47.55206782731185 54.5 47.961512569673815 L 60.5 48.70595755578648 L 55 48.778855676394706 C 51.975 48.81894964272923 47.475 48.49143412407705 45 48.0510434127232 L 40.5 47.250333028443485 L 44.5 47.23370030600232 Z M 103.25 47.13618205383327 C 105.08830313503701 47.045147909652364 106 47.49728919907072 106 48.5 C 106 49.66669143384657 104.88880631935244 49.94444857230776 100.99925687417198 49.75 C 98.24884815496657 49.6125 95.99884815496657 49.1625 95.99925687417198 48.75 C 95.99966559337739 48.3375 97.0125 47.83628192422497 98.25 47.63618205383327 C 99.4875 47.43608218344156 101.7375 47.21108218344156 103.25 47.13618205383327 Z M 115.25 49.07028526261038 C 115.6625 49.03162836817467 116.225 49.45 116.5 50 C 116.7851344745782 50.570268949156414 115.60337408475833 50.969796240239624 113.75 50.92971473738962 C 111.02647305283969 50.87081510455651 110.82398341713213 50.720209025767716 112.5 50 C 113.6 49.52731378887142 114.8375 49.10894215704609 115.25 49.07028526261038 Z M 38.76493159432792 54 C 38.979338265066616 54.825 38.89494047619048 55.725 38.57738095238095 56 C 38.25982142857143 56.275 37.775 56.1625 37.5 55.75 C 37.225 55.3375 37.30939778887614 54.4375 37.68755064194697 53.75 C 38.203638050445676 52.81172837131445 38.472318218102416 52.87407404557734 38.76493159432792 54 Z M 136.25 54.015312774517064 C 137.08333333333334 54.025521290861775 137 54.35375036602275 136 55 C 134.75878669183058 55.80213364609219 134.84504892244075 55.96722393299421 136.5 55.95690944770516 C 137.6 55.95005369591176 138.16691730321057 56.294444444444444 137.75981622935683 56.72222222222222 C 137.3527151555031 57.15 136.34021515550307 57.1625 135.50981622935683 56.75 C 134.67941730321058 56.3375 134.225 55.55 134.5 55 C 134.775 54.45 135.5625 54.006890748532676 136.25 54.015312774517064 Z M 87.5 55.94444444444444 C 90.8 55.94444444444445 93.275 56.164175359012866 93 56.432735365707586 C 92.725 56.70129537240231 90.39691481266286 57.051295372402315 87.82647736147301 57.210513143485365 C 85.25603991028316 57.369730914568414 82.78103991028317 57.15 82.32647736147301 56.72222222222222 C 81.87191481266285 56.294444444444444 84.2 55.94444444444444 87.5 55.94444444444444 Z M 124.58967466982459 56.32689578053618 C 125.09035360142107 56.781688459831074 125.34160719369548 59.93168845983107 125.14801598598996 63.32689578053618 L 124.79603197197991 69.5 L 127.64801598598996 68.79279061455 C 129.90385648274997 68.2334075452376 130.22877822502934 68.33792137040659 129.2024598203535 69.29279061455 C 128.2616240062027 70.16812830568783 123.58818551963574 70.38515278465792 112.2024598203535 70.08223422295444 C 103.56610691915907 69.85246304557937 95.375 69.6486158301325 94 69.62924041085026 C 92.625 69.60986499156803 88.575 69.96096150332083 85 70.40945488141203 C 81.425 70.85794825950323 78.725 70.98746607931739 79 70.6972722587768 C 79.275 70.40707843823623 81.525 69.89125681971133 84 69.55100199538815 C 86.475 69.21074717106497 90.8625 68.49757656669769 93.75 67.96617843012754 C 96.6375 67.4347802935574 99.5625 67.37955922018423 100.25 67.84346493374275 C 100.9375 68.30737064730127 105.55 68.76392573294021 110.5 68.85803179071817 C 115.45 68.95213784849614 120.2875 68.7975786283119 121.25 68.51456685697542 C 122.31278217147322 68.20206829604714 123 67.01826024496174 123 65.5 C 123 63.33702044080618 122.56187342695196 63.00600238137785 119.75 63.04452535106988 C 117.11682636285526 63.08060011433814 116.73573120970542 62.84335920554765 117.74204553773652 61.79452535106988 C 118.4251705834916 61.08253640798145 118.79727266425536 60.275 118.56893905054486 60 C 118.34060543683435 59.725 119.01918494485291 59.3875 120.07689351280834 59.25 C 121.32695478402432 59.08749453299367 122.01240162060272 59.612461730955644 122.03543541572941 60.75 C 122.0622331305583 62.07342177974353 122.40642158867486 61.89060254249076 123.44743859147023 60 C 124.20455085947651 58.625 124.56645852381935 57.05 124.25167784556541 56.5 C 123.93475366511589 55.946254769466435 124.08558636000606 55.869006185915936 124.58967466982459 56.32689578053618 Z M 142 56 C 142.55 56 143 56.45 143 57 C 143 57.55 143.675 58 144.5 58 C 145.325 58 146 58.675 146 59.5 C 146 60.63333333333333 144.77777777777777 61 141 61 C 137.22222222222223 61 136 60.63333333333333 136 59.5 C 136 58.56666666666666 136.94444444444446 58 138.5 58 C 139.875 58 141 57.55 141 57 C 141 56.45 141.45 56 142 56 Z M 133.5 57.5 C 134.325 57.775 135 58.675 135 59.5 C 135 60.388888888888886 134.38888888888889 60.7962962962963 133.5 60.5 C 132.56172839506172 60.18724279835391 131.97043534762832 60.65534979423868 131.92105263157896 61.75 C 131.87763157894736 62.7125 131.65263157894736 62.9375 131.42105263157896 62.25 C 131.18947368421053 61.5625 129.875 61 128.5 61 C 127.125 61 126 60.55 126 60 C 126 59.45 126.5625 58.94668282171862 127.25 58.881517381596936 L 128.5 58.763034763193865 L 129.75 58.881517381596936 C 130.4375 58.94668282171862 131.225 58.55 131.5 58 C 131.775 57.45 132.675 57.225 133.5 57.5 Z M 81.5 59 C 82.875 59 84.225 59.45 84.5 60 C 84.77777777777777 60.55555555555556 83.66666666666667 61 82 61 C 80.35 61 79 60.55 79 60 C 79 59.45 80.125 59 81.5 59 Z M 99.75 59.07028526261038 C 99.8875 59.03162836817467 100 59.45 100 60 C 100 60.55 98.9875 60.96837163182533 97.75 60.92971473738962 L 95.5 60.85942947477924 L 97.5 60 C 98.6 59.52731378887142 99.6125 59.10894215704609 99.75 59.07028526261038 Z M 157 62 C 157.55 62 158 62.45 158 63 C 158 63.55 157.325 64 156.5 64 C 155.675 64 155.225 63.55 155.5 63 C 155.775 62.45 156.45 62 157 62 Z M 28.725697490458387 67 C 28.93991768518996 68.925 28.94288953380569 72.525 28.732301598493343 75 C 28.521713663181 77.475 28.34644259476426 75.9 28.342810335345032 71.5 C 28.339178075925805 67.1 28.511477295726817 65.075 28.725697490458387 67 Z M 31.75 63.97222222222222 C 31.887500000000003 63.9875 31.6625 64.53846104913417 31.25 65.19658010918704 C 30.715592351037554 66.0491955264482 31.28480437531659 66.26478787748576 33.23016773858045 65.94658010918704 C 34.731759994799695 65.70096104913416 35.96925999479969 65.8375 35.98016773858045 66.25 C 35.991075482361204 66.6625 34.65 67 33 67 C 31.35 67 29.9875 66.6625 29.97222222222222 66.25 C 29.956944444444442 65.8375 30.294444444444444 65.15 30.72222222222222 64.72222222222223 C 31.15 64.29444444444444 31.612499999999997 63.956944444444446 31.75 63.97222222222222 Z M 129 65 C 130.1 65 131 65.225 131 65.5 C 131 65.775 130.1 66.225 129 66.5 C 127.9 66.775 127 66.55 127 66 C 127 65.45 127.9 65 129 65 Z M 37.72222222222222 67.33587157431782 C 38.15 67.79560094019263 38.6125 70.60810094019263 38.75 73.58587157431782 C 38.893578924712294 76.69529052477262 38.57431569884916 79 38 79 C 37.442962962962966 79 36.98769547325103 76.23148148148148 36.97222222222222 72.75 C 36.956944444444446 69.3125 37.294444444444444 66.87614220844303 37.72222222222222 67.33587157431782 Z M 75.5 70 C 76.325 70 77.225 70.45 77.5 71 C 77.775 71.55 77.1 72 76 72 C 74.9 72 74 71.55 74 71 C 74 70.45 74.675 70 75.5 70 Z M 9 71 C 9.55 71 10.225 71.675 10.5 72.5 C 10.775 73.325 10.4375 74.01368390865534 9.75 74.03040868590074 C 9.0625 74.04713346314615 9.2875 74.49713346314616 10.25 75.03040868590074 C 11.2125 75.56368390865534 12 76.9 12 78 C 12 79.66666666666667 11.666666666666668 79.83333333333333 10 79 C 8.571428571428571 78.28571428571429 8 77 8 74.5 C 8 72.575 8.45 71 9 71 Z M 145.5 71 C 146.875 71 148.17657731137842 71.3375 148.3923940252854 71.75 C 148.60821073919234 72.1625 147.48321073919234 72.3875 145.8923940252854 72.25 C 144.30157731137842 72.1125 143 71.775 143 71.5 C 143 71.225 144.125 71 145.5 71 Z M 108 73.60385913386145 C 115.425 73.81743947003487 121.725 74.23144493880517 122 74.52387128668437 C 122.275 74.81629763456355 121.9375 75.0430555555556 121.25 75.0277777777778 C 120.49581005586592 75.01101800124148 120.19832402234637 75.79329608938546 120.5 77 C 120.875 78.5 120.5 79 119 79 C 117.9 79 117 78.55 117 78 C 117 77.45 116.1 77.225 115 77.5 C 113.66666666666667 77.83333333333333 113 77.5 113 76.5 C 113 75.446935337383 111.88266165654251 74.97720293899117 109.25 74.92348872722066 C 107.1875 74.88140752719202 104.7125 74.65640752719202 103.75 74.42348872722066 C 102.7875 74.1905699272493 102 74.45 102 75 C 102 75.55 102.5625 76.18947368421053 103.25 76.42105263157895 C 103.9375 76.65263157894736 102.5875 76.87763157894736 100.25 76.92105263157895 C 97.9125 76.96447368421053 95.68322025899384 76.8875 95.29604501998631 76.75 C 94.90886978097878 76.6125 94.57136978097878 75.7609945312297 94.54604501998631 74.85776562495491 C 94.50503251676685 73.39502019420719 95.97549021311177 73.25797376785418 108 73.60385913386145 Z M 87.5 78.29974435989698 C 85.85 78.31979838697417 82.7 78.53757099674466 80.5 78.78368349272029 L 76.5 79.2311607581305 L 83 81.19391719664955 C 86.575 82.27343323783504 91.3 83.5765671258516 93.5 84.08977028113082 C 95.7 84.60297343641004 97.725 84.79541752330846 98 84.51742380757175 C 98.275 84.23943009183503 96.57913511727101 83.6717850332391 94.23141137171335 83.25599034402524 C 91.8677236593425 82.83736834915742 89.97111810710129 81.94217483757612 89.98141137171335 81.25 C 89.99213283299864 80.52903089997042 88.6245196600769 79.94428617042192 86.75 79.86835875375806 L 83.5 79.73671750751613 L 87 79 L 90.5 78.26328249248387 L 87.5 78.29974435989698 Z M 132.5 80.19494871889628 C 134.15 80.17456902876648 135.05 80.3756408852955 134.5 80.64177506673853 C 133.95 80.90790924818157 132.6 80.92458354010594 131.5 80.6788290487927 C 130.23197979046165 80.3955366291836 130.59796968569245 80.21844131794056 132.5 80.19494871889628 Z M 151.5 80.19494871889628 C 149.59796968569245 80.21844131794056 149.23197979046165 80.3955366291836 150.5 80.6788290487927 C 151.6 80.92458354010594 152.95 80.90790924818157 153.5 80.64177506673853 C 154.05 80.3756408852955 153.15 80.17456902876648 151.5 80.19494871889628 Z M 104 83.5 C 103.26509521478316 81.78978454478627 103.13038673380538 81.75356147668799 103.07028526261038 83.25 C 103.0262492387626 84.34643243649519 102.43979923128158 84.81326641042719 101.5 84.5 C 100.675 84.225 99.775 84.45 99.5 85 C 99.225 85.55 100.0125 86.05743043471782 101.25 86.12762318826181 C 102.4875 86.1978159418058 104.4 86.34483018499223 105.5 86.45432150645388 C 106.6 86.56381282791553 109.75 87.22535431737592 112.5 87.92441370525475 C 115.25 88.6234730931336 118.175 89.44790019875342 119 89.75647393996547 C 119.825 90.06504768117755 120.8375 90.24607575699933 121.25 90.1587585529028 C 121.6625 90.07144134880626 122 90.45 122 91 C 122 91.59635858974531 123.31183458332774 91.73470743993437 125.25 91.34275187499162 C 127.0375 90.981265406237 128.725 90.29455683138258 129 89.81673281975955 C 129.275 89.33890880813654 130.2875 89.18467046439031 131.25 89.47398094476794 C 132.2125 89.76329142514558 133.45 89.775 134 89.5 L 135 89 L 134 87 C 133.16459585145708 85.32919170291419 132.46506348276446 85.131457655171 129.75 85.7986693103579 C 127.9625 86.23793743105473 125.15 86.29117908584642 123.5 85.91698409878387 C 121.85 85.54278911172133 119.6 85.19027867059296 118.5 85.13362756294305 C 116.85439771431712 85.04887738818381 116.76579828573784 85.20239759390398 118 86 C 119.21295885499998 86.7838742160732 119.06943828249997 86.97230471518621 117.25 86.98468722548293 C 116.0125 86.99310925146732 115.1718501344952 86.6625 115.3818891877671 86.25 C 115.591928241039 85.8375 114.57942824103901 85.59633780804127 113.1318891877671 85.71408401786951 C 111.23520098110133 85.86836506960071 111.05868688128551 85.76842782268304 112.5 85.356326389168 C 114.12231062156633 84.89247400062494 113.74462124313264 84.52441047417656 110.5 83.40729870946576 C 108.3 82.64984639124359 106.1625 82.02333732415926 105.75 82.01505633816726 C 105.3375 82.00677535217527 104.96837163182533 82.7875 104.92971473738962 83.75 C 104.86961326619462 85.24643852331201 104.73490478521684 85.21021545521373 104 83.5 Z M 157.75 82.01684675686266 C 156.5125 82.02611247313713 153.925 83.03861247313714 152 84.26684675686266 L 148.5 86.5 L 151.75 86.75 C 153.57456140350877 86.89035087719299 155.21929824561403 87.65789473684211 155.5 88.5 C 155.891541063067 89.67462318920097 154.8611811622034 90.09227687561977 150.75 90.42540005567622 C 147.8625 90.65937008629814 144.4875 90.88437008629815 143.25 90.92540005567622 C 142.0125 90.9664300250543 141 90.55 141 90 C 141 89.45 140.1 89 139 89 C 137.9 89 137 89.45 137 90 C 137 90.55 137.5625 91.00689074853268 138.25 91.01531277451707 C 139.08316643028564 91.02551924626279 138.99979971634278 91.35355028027806 138 91.99901183887046 C 137.175 92.53162429828043 133.8 93.51113275509383 130.5 94.17569729845576 C 125.47998103417322 95.18664475654454 124.9083254309055 95.49968678017618 127 96.09231820875175 L 129.5 96.80063994929877 L 126.75 96.90031997464939 C 125.2375 96.95514398859223 124 96.55 124 96 C 124 95.45 123.2125 95.19789608819067 122.25 95.43976908486817 C 121.2875 95.68164208154566 119.15 96.18320416240353 117.5 96.55435148677452 C 114.81221614850138 97.15893559887836 114.70814409900092 97.31399729658057 116.5 98.04429713929599 C 118.25130648140804 98.75807041046454 118.15804641193606 98.86816921941112 115.75 98.92971473738962 C 114.2375 98.96837163182533 112.99107406176928 98.6625 112.98016458170952 98.25 C 112.96925510164975 97.8375 111.05675510164976 97.81790202052699 108.73016458170952 98.20644893450441 C 106.40357406176928 98.59499584848183 104.1625 98.93249584848184 103.75 98.95644893450441 C 103.3375 98.98040202052698 103 97.875 103 96.5 L 103 94 L 98 94 L 93 94 L 93.25 97.49440867544413 C 93.41168539291179 99.75438803417836 93.05842696455896 100.99079253341327 92.25 100.99440867544413 C 91.5625 100.99748390394986 91 101.45 91 102 C 91 102.55 90.2125 102.74400787457563 89.25 102.43112861016806 C 88.2875 102.11824934576049 83.675 102.57409956577152 79 103.44412909908147 C 74.325 104.31415863239141 70.3875 105.02015075781578 70.25 105.0130004889134 C 70.1125 105.00585022001103 70 105.675 70 106.5 C 70 107.43333333333334 69.05555555555556 108 67.5 108 C 65.38888888888889 108 65 107.53333333333333 65 105 C 65 103.2584998535909 64.4756250610038 102.0064237081626 63.75 102.01531277451707 C 63.0625 102.02373480050144 61.825 102.41748480050146 61 102.89031277451707 C 59.86212387003941 103.54245782325646 59.80176989169951 103.90088494584975 60.75 104.375 C 61.4375 104.71875 61.775 105.45 61.5 106 C 61.225 106.55 61.7875 107.316782135596 62.75 107.70396030132446 C 64.24107004100092 108.30376265295808 64.13010005857274 108.51095396359898 62 109.10428027597384 C 60.625 109.48727809630255 58.6 109.83860521217387 57.5 109.88500720013232 C 55.81857585801965 109.95593576630435 55.73893189351474 109.79965937503918 57 108.90391345224691 C 58.11549241128091 108.11157101318905 57.41056183196258 107.98732706895345 54.25 108.41922622676397 L 50 109 L 50 104 L 50 99 L 46.75 99.48744068472493 C 44.9625 99.75553306132365 40.8 100.41684423390792 37.5 100.95702106824555 C 34.2 101.49719790258318 25.087500000000002 102.85284959445696 17.25 103.96958038352062 C 9.412499999999998 105.08631117258427 2.325 105.775 1.5 105.5 C 0.25186613365753097 105.08395537788584 0.002571179542120383 106.30130835723058 0.015312774517056482 112.75 C 0.025928966472333892 118.1229967460668 0.3279424811922529 120.03993485407744 0.9999999999999858 119 C 1.6462496339772361 118 1.9744787091382157 117.91666666666666 1.9846872254829293 118.75 C 1.9968066403761826 119.73932225506736 18.474833479742443 120 81 120 L 160 120 L 160 101 L 160 82 L 157.75 82.01684675686266 Z M 140 93.14057052522075 C 140.9454791310802 93.14057052522075 140.76063884144025 93.45828491130733 139.5 94 C 138.4 94.47268621112859 136.825 94.85942947477925 136 94.85942947477925 C 135.0545208689198 94.85942947477925 135.23936115855975 94.54171508869267 136.5 94 C 137.6 93.52731378887141 139.175 93.14057052522075 140 93.14057052522075 Z M 132 95.15789473684211 C 133.375 95.15789473684211 133.9375 95.34736842105264 133.25 95.57894736842105 L 132 96 L 130.75 95.57894736842105 C 130.0625 95.34736842105264 130.625 95.15789473684211 132 95.15789473684211 Z M 121 97.15789473684211 C 122.375 97.15789473684211 122.9375 97.34736842105264 122.25 97.57894736842105 L 121 98 L 119.75 97.57894736842105 C 119.0625 97.34736842105264 119.625 97.15789473684211 121 97.15789473684211 Z M 105 100.15789473684211 C 106.375 100.15789473684211 106.9375 100.34736842105264 106.25 100.57894736842105 L 105 101 L 103.75 100.57894736842105 C 103.0625 100.34736842105264 103.625 100.15789473684211 105 100.15789473684211 Z M 94 102.15789473684211 C 95.375 102.15789473684211 95.9375 102.34736842105264 95.25 102.57894736842105 L 94 103 L 92.75 102.57894736842105 C 92.0625 102.34736842105264 92.625 102.15789473684211 94 102.15789473684211 Z M 89 103.20192650885231 C 89.88714196918264 103.16563886342561 89.6828559589102 103.49170936224715 88.5 104 C 87.4 104.47268621112859 85.15 104.83181928214505 83.5 104.79807349114769 L 80.5 104.73671750751613 L 84 104 C 85.925 103.59480537086613 88.175 103.23567229984967 89 103.20192650885231 Z M 78 105.19936005070124 L 80.5 105.19936005070124 L 78 106 C 76.625 106.44035197211431 74.375 106.80063994929876 73 106.80063994929876 L 70.5 106.80063994929876 L 73 106 C 74.375 105.55964802788569 76.625 105.19936005070124 78 105.19936005070124 Z M 53.5 110 C 54.875 110 56 110.225 56 110.5 C 56 110.775 54.69842268862158 111.1125 53.107605974714616 111.25 C 51.51678926080766 111.3875 50.39178926080766 111.1625 50.607605974714616 110.75 C 50.82342268862158 110.3375 52.125 110 53.5 110 Z " fill="#0ad2f5"></path></svg>
